<?xml version="1.0" standalone="no"?>
<!DOCTYPE svg PUBLIC "-//W3C//DTD SVG 20010904//EN"
 "http://www.w3.org/TR/2001/REC-SVG-20010904/DTD/svg10.dtd">
<svg version="1.0" xmlns="http://www.w3.org/2000/svg"
 width="666.000000pt" height="420.000000pt" viewBox="0 0 666.000000 420.000000"
 preserveAspectRatio="xMidYMid meet">

<g transform="translate(0.000000,420.000000) scale(0.100000,-0.100000)"
fill="#000000" stroke="none">
<path d="M0 2100 l0 -2100 3330 0 3330 0 0 2100 0 2100 -3330 0 -3330 0 0
-2100z m2050 786 c171 -57 303 -171 370 -319 74 -163 64 -365 -27 -539 -63
-121 -169 -217 -298 -271 -117 -49 -183 -54 -597 -49 -195 2 -228 4 -228 17 0
11 11 15 40 15 54 0 87 17 100 53 14 42 14 1003 -1 1045 -11 32 -42 49 -98 54
-19 2 -36 9 -39 16 -3 11 59 13 344 10 l349 -4 85 -28z m1355 19 c110 -29 202
-105 228 -189 6 -23 12 -81 12 -131 -1 -79 -5 -97 -30 -148 -66 -132 -217
-217 -387 -217 -36 0 -73 3 -82 6 -33 13 -14 21 48 21 49 -1 75 5 113 24 107
55 165 219 133 381 -15 80 -39 126 -88 170 -49 44 -99 62 -179 63 -74 0 -91
-13 -104 -77 -11 -58 -11 -933 1 -982 13 -60 37 -76 124 -89 42 -6 76 -14 76
-19 0 -4 -121 -7 -270 -7 -255 0 -332 8 -221 23 27 4 60 15 73 25 l23 19 3
516 c3 583 4 576 -65 595 -21 6 -48 11 -60 11 -13 0 -23 4 -23 8 0 4 139 9
309 10 245 1 321 -2 366 -13z m990 4 c3 -4 -17 -9 -44 -13 -69 -9 -93 -31
-102 -97 -10 -72 -10 -921 0 -983 10 -59 26 -73 97 -82 113 -14 34 -23 -196
-23 -230 0 -306 9 -198 23 67 9 84 19 97 57 15 43 15 1006 1 1045 -15 38 -37
52 -97 60 -29 3 -51 9 -48 13 5 9 481 9 490 0z m599 -505 c14 -5 16 -28 16
-145 l0 -139 140 0 140 0 0 -45 0 -45 -140 0 -140 0 0 -141 0 -140 -47 3 -48
3 -3 138 -3 137 -133 0 -134 0 -6 26 c-4 14 -4 34 -1 45 6 17 17 19 141 19
l134 0 0 133 c0 90 4 137 12 145 13 13 47 16 72 6z m-3094 -1144 c0 -105 1
-110 21 -110 28 0 19 -24 -11 -28 -12 -2 -27 2 -31 10 -5 7 -9 64 -9 126 0 93
3 112 15 112 12 0 15 -19 15 -110z m1708 87 c2 -10 -3 -17 -12 -17 -18 0 -29
16 -21 31 9 14 29 6 33 -14z m342 -22 c0 -43 1 -45 21 -35 24 14 61 6 83 -16
22 -22 23 -154 1 -154 -12 0 -15 14 -15 63 0 67 -10 87 -46 87 -32 0 -43 -19
-46 -85 -2 -35 -8 -60 -15 -63 -10 -3 -13 26 -13 122 0 105 2 126 15 126 11 0
15 -12 15 -45z m-2241 -20 c8 -22 20 -43 25 -47 6 -4 8 -8 4 -8 -4 0 4 -29 17
-65 23 -60 23 -65 7 -65 -10 0 -22 12 -29 30 -10 28 -15 30 -61 30 -46 0 -51
-2 -62 -30 -11 -27 -40 -42 -40 -21 0 5 19 57 41 116 36 92 44 106 62 103 14
-2 26 -16 36 -43z m2051 16 c0 -15 8 -21 32 -23 46 -4 49 -28 3 -28 l-36 0 3
-57 c3 -53 5 -58 28 -61 37 -5 47 -20 17 -27 -58 -15 -77 9 -77 98 0 35 -4 47
-15 47 -8 0 -15 7 -15 15 0 8 6 15 14 15 7 0 16 9 19 20 7 26 27 26 27 1z
m-1705 -97 l21 -69 24 69 c14 38 30 71 37 73 6 2 21 -27 35 -69 l25 -73 22 67
c21 64 36 87 48 75 3 -3 -8 -43 -25 -89 -31 -86 -55 -109 -66 -65 -3 14 -14
44 -24 68 l-19 44 -22 -68 c-13 -38 -28 -67 -36 -67 -8 0 -24 32 -39 78 -29
86 -32 106 -14 100 7 -3 21 -36 33 -74z m413 60 c19 -13 22 -24 22 -75 0 -44
4 -61 15 -65 8 -4 15 -10 15 -15 0 -12 -37 -11 -45 1 -4 7 -12 7 -25 0 -39
-21 -100 0 -100 35 0 20 36 46 74 52 31 5 36 10 34 27 -4 26 -49 34 -71 11
-12 -11 -18 -12 -23 -3 -9 15 32 48 60 48 12 0 32 -7 44 -16z m172 -59 c17
-42 30 -64 34 -55 3 8 15 41 26 73 20 53 32 67 44 49 5 -8 -77 -206 -95 -228
-16 -19 -69 -19 -69 1 0 11 7 14 25 9 20 -5 27 -1 36 20 11 23 8 37 -19 104
-34 82 -39 106 -21 100 7 -2 24 -35 39 -73z m301 56 c28 -22 18 -41 -11 -23
-27 17 -67 15 -74 -3 -6 -16 8 -25 68 -42 16 -5 33 -19 37 -31 19 -50 -67 -83
-120 -46 -33 24 -11 41 23 19 22 -14 32 -16 51 -7 36 17 31 30 -17 43 -24 7
-49 17 -55 22 -20 15 -15 54 9 71 30 21 61 20 89 -3z m321 -53 l24 -72 25 69
c13 38 29 70 36 72 6 2 21 -27 36 -69 l24 -73 23 73 c14 46 27 72 37 72 10 0
12 -6 8 -21 -35 -109 -54 -154 -66 -157 -10 -2 -22 18 -38 63 -13 36 -25 65
-26 65 -2 0 -13 -29 -25 -65 -12 -36 -27 -65 -34 -65 -13 0 -77 159 -69 173
11 19 23 1 45 -65z m343 -18 c0 -58 -4 -85 -12 -87 -10 -4 -13 18 -13 87 0 69
3 91 13 88 8 -3 12 -30 12 -88z m777 14 l27 -69 15 36 c8 19 18 47 21 62 7 27
31 54 41 45 7 -8 -75 -210 -94 -231 -17 -20 -63 -20 -69 0 -3 8 6 11 23 10 22
-2 30 4 38 25 8 21 3 41 -22 102 -35 82 -38 100 -19 94 6 -3 24 -36 39 -74z
m321 56 c34 -27 44 -78 23 -118 -16 -32 -34 -42 -71 -42 -37 0 -55 10 -70 41
-23 43 -18 77 14 110 35 34 68 37 104 9z m167 -39 c0 -77 6 -91 39 -91 41 0
51 17 51 87 0 49 3 63 15 63 12 0 15 -17 15 -89 l0 -89 -32 0 c-18 0 -37 -1
-43 -2 -23 -5 -44 1 -59 16 -22 22 -23 164 -1 164 12 0 15 -13 15 -59z"/>
<path d="M1742 2879 c-72 -9 -109 -28 -122 -65 -6 -15 -10 -221 -10 -495 0
-522 1 -528 62 -553 53 -22 158 -29 224 -16 181 37 308 170 349 368 19 88 19
262 0 354 -8 40 -33 110 -56 156 -94 193 -245 277 -447 251z"/>
<path d="M1667 1293 c-3 -5 -12 -25 -20 -45 l-16 -38 39 0 39 0 -16 45 c-15
46 -18 51 -26 38z"/>
<path d="M2402 1184 c-27 -19 -28 -31 -2 -39 26 -8 60 11 60 35 0 24 -27 26
-58 4z"/>
<path d="M4616 1254 c-33 -33 -5 -114 39 -114 25 0 55 38 55 69 0 36 -23 61
-55 61 -13 0 -31 -7 -39 -16z"/>
</g>
</svg>
