<?xml version="1.0" standalone="no"?>
<!DOCTYPE svg PUBLIC "-//W3C//DTD SVG 20010904//EN"
 "http://www.w3.org/TR/2001/REC-SVG-20010904/DTD/svg10.dtd">
<svg version="1.0" xmlns="http://www.w3.org/2000/svg"
 width="262.000000pt" height="261.000000pt" viewBox="0 0 262.000000 261.000000"
 preserveAspectRatio="xMidYMid meet">

<g transform="translate(0.000000,261.000000) scale(0.100000,-0.100000)"
fill="#000000" stroke="none">
<path d="M10 1310 l0 -1300 1300 0 1300 0 0 1300 0 1300 -1300 0 -1300 0 0
-1300z m1763 294 c58 -20 71 -35 19 -23 -91 21 -202 -1 -327 -63 -33 -17 -75
-36 -93 -42 l-33 -12 20 -26 c12 -14 21 -40 21 -56 0 -17 6 -32 13 -35 7 -3 1
-13 -17 -28 -46 -38 -69 -48 -103 -49 -26 0 -33 4 -33 20 0 15 7 20 28 20 39
0 52 17 52 67 0 45 -17 63 -59 63 -14 0 -21 6 -21 20 0 17 7 20 40 20 26 0 60
12 102 34 89 49 162 76 243 91 93 17 94 17 148 -1z m-788 -54 c12 -5 -3 -6
-40 -3 -52 3 -67 0 -110 -24 -52 -29 -93 -79 -102 -125 -3 -16 -12 -28 -20
-28 -21 0 -8 56 26 105 39 58 92 85 166 84 33 0 69 -4 80 -9z m804 -10 c47
-24 87 -69 96 -110 12 -53 -6 -55 -34 -4 -31 58 -87 94 -148 94 -60 0 -203
-57 -203 -82 0 -25 11 -23 83 14 50 26 74 32 126 32 61 1 64 0 97 -38 29 -34
34 -46 34 -93 l0 -53 55 0 c52 0 55 -1 55 -25 0 -24 -3 -25 -55 -25 l-55 0 0
-50 c0 -47 -2 -50 -25 -50 -23 0 -25 3 -25 50 l0 50 -50 0 c-47 0 -50 2 -50
25 0 23 3 25 50 25 l50 0 0 49 c0 27 3 56 6 65 7 18 -43 46 -84 46 -16 0 -49
-7 -73 -16 -24 -8 -52 -17 -61 -19 -10 -2 -27 -13 -40 -24 -12 -12 -25 -21
-30 -21 -4 0 -8 -52 -8 -115 l0 -115 -30 0 -30 0 0 138 c0 76 -4 142 -9 148
-16 15 10 39 64 59 28 10 79 28 115 41 80 29 129 30 179 4z m-921 -222 l2
-168 -30 0 -30 0 0 171 0 170 28 -3 27 -3 3 -167z m150 135 c44 -33 65 -78 63
-139 -2 -103 -56 -164 -145 -164 -39 0 -46 3 -46 20 0 17 7 20 38 20 51 0 83
34 92 97 14 89 -26 153 -96 153 -28 0 -34 4 -34 21 0 20 4 21 51 17 28 -3 62
-14 77 -25z m204 0 c2 -16 2 -90 0 -165 l-3 -138 -30 0 -29 0 0 165 0 165 29
0 c25 0 30 -4 33 -27z m-345 -428 c7 -21 10 -41 7 -44 -4 -3 -9 0 -11 7 -5 14
-33 16 -33 2 0 -5 -7 -10 -16 -10 -11 0 -14 6 -8 23 25 80 39 85 61 22z m45 0
c2 -27 -1 -44 -7 -42 -13 5 -19 87 -7 87 6 0 12 -20 14 -45z m385 18 l10 -28
6 28 c9 34 20 34 34 0 10 -25 11 -26 12 -6 1 12 6 25 12 29 9 5 10 -4 4 -32
-11 -60 -27 -73 -39 -31 l-7 22 -9 -22 c-14 -35 -26 -28 -37 22 -11 49 0 62
14 18z m157 -22 c2 -27 -1 -40 -8 -38 -13 4 -20 52 -12 74 9 24 17 10 20 -36z
m46 39 c0 -5 7 -10 15 -10 19 0 31 -48 16 -63 -8 -8 -11 -4 -11 15 0 15 -4 30
-10 33 -6 3 -10 -5 -10 -19 0 -14 -4 -28 -10 -31 -6 -4 -10 12 -10 39 0 25 5
46 10 46 6 0 10 -4 10 -10z m97 -6 c5 -15 7 -15 15 0 14 25 31 19 17 -6 -6
-12 -15 -33 -20 -47 -5 -17 -8 -20 -8 -8 -1 10 -8 31 -16 47 -9 18 -11 30 -5
30 6 0 13 -7 17 -16z m-647 -21 c1 -17 1 -17 11 0 13 22 29 22 29 0 0 -15 2
-14 16 3 15 18 15 17 10 -15 -8 -43 -12 -47 -30 -32 -11 9 -15 9 -19 -1 -6
-18 -23 0 -31 35 -4 16 -2 27 4 27 5 0 10 -8 10 -17z m138 -21 c3 -29 1 -32
-22 -32 -19 0 -26 5 -26 20 0 11 7 20 15 20 18 0 20 16 3 24 -7 3 -4 5 7 3 15
-2 21 -11 23 -35z m39 22 c6 -15 7 -15 20 1 7 10 15 16 18 13 8 -8 -33 -98
-45 -98 -13 0 -13 17 1 22 8 3 6 15 -4 41 -9 20 -12 37 -6 37 5 0 12 -7 16
-16z m83 6 c-13 -8 -12 -11 4 -23 11 -8 16 -19 12 -25 -9 -15 -46 -16 -46 -2
0 6 8 10 17 10 15 0 15 1 -2 13 -20 16 -13 37 13 37 15 0 15 -2 2 -10z m197
-42 c-2 -13 -4 -5 -4 17 -1 22 1 32 4 23 2 -10 2 -28 0 -40z m298 17 c0 -25
-4 -30 -25 -30 -16 0 -26 6 -28 18 -6 30 6 49 30 45 18 -2 23 -9 23 -33z m46
8 l2 -28 4 28 c6 41 35 36 31 -5 -2 -28 -8 -34 -30 -36 -26 -3 -28 -1 -28 32
0 42 19 49 21 9z"/>
<path d="M1680 1020 c0 -11 5 -20 10 -20 6 0 10 9 10 20 0 11 -4 20 -10 20 -5
0 -10 -9 -10 -20z"/>
</g>
</svg>
