<?xml version="1.0" standalone="no"?>
<!DOCTYPE svg PUBLIC "-//W3C//DTD SVG 20010904//EN"
 "http://www.w3.org/TR/2001/REC-SVG-20010904/DTD/svg10.dtd">
<svg version="1.0" xmlns="http://www.w3.org/2000/svg"
 width="431.000000pt" height="348.000000pt" viewBox="0 0 431.000000 348.000000"
 preserveAspectRatio="xMidYMid meet">

<g transform="translate(0.000000,348.000000) scale(0.100000,-0.100000)"
fill="#000000" stroke="none">
<path d="M0 1740 l0 -1740 2155 0 2155 0 0 1740 0 1740 -2155 0 -2155 0 0
-1740z m3146 740 c73 -19 190 -67 182 -76 -2 -2 -33 6 -68 18 -98 32 -331 32
-450 0 -120 -33 -280 -101 -456 -193 -98 -51 -162 -79 -183 -79 l-33 0 45 -50
c54 -60 71 -105 65 -172 -4 -39 -2 -48 8 -44 8 4 21 9 29 12 8 3 15 1 15 -5 0
-19 -30 -71 -40 -71 -5 0 -37 -25 -71 -55 -70 -62 -129 -85 -221 -85 l-58 0 0
44 0 43 62 6 c106 9 151 64 143 174 -3 35 -10 71 -17 82 -19 31 -66 53 -129
58 l-59 6 0 50 0 50 80 -6 80 -6 182 93 c101 52 224 110 273 129 231 91 456
119 621 77z m-1879 -114 c58 -16 148 -56 178 -80 11 -9 -9 -3 -45 13 -89 40
-175 55 -270 48 -195 -13 -373 -170 -412 -363 -10 -51 -12 -54 -41 -54 l-30 0
7 53 c10 79 70 192 135 257 63 61 158 117 223 129 68 14 198 12 255 -3z m1826
-6 c85 -14 160 -52 226 -115 68 -64 108 -140 117 -220 7 -60 0 -75 -38 -75
-12 0 -18 8 -18 25 0 13 -9 49 -21 79 -57 154 -246 256 -418 226 -62 -11 -260
-84 -361 -133 -42 -21 -45 -25 -48 -65 -2 -23 0 -42 3 -42 4 0 66 29 139 64
72 36 161 72 197 80 76 19 191 21 254 5 60 -15 127 -75 154 -139 15 -36 27
-50 41 -50 19 0 20 -7 20 -125 l0 -125 125 0 125 0 0 -55 0 -55 -125 0 -125 0
0 -125 0 -125 -61 0 -61 0 3 125 4 125 -127 0 -128 0 0 55 0 55 125 0 125 0 0
125 c0 104 2 125 15 125 46 0 -25 92 -93 121 -82 35 -205 19 -347 -46 -35 -16
-76 -27 -98 -26 -33 1 -40 -4 -58 -33 -11 -19 -40 -47 -65 -61 l-44 -26 0
-269 0 -270 -65 0 -65 0 -1 278 c-1 152 0 302 1 333 l2 56 -44 16 c-24 9 -49
17 -56 17 -23 0 -2 20 49 45 27 14 49 32 49 40 0 10 10 15 30 15 17 0 56 13
88 29 94 47 288 121 355 136 75 16 143 18 220 5z m-2053 -570 l0 -401 -67 3
-68 3 -3 398 -3 397 71 0 70 0 0 -400z m212 389 c120 -25 216 -100 267 -208
36 -78 42 -235 12 -330 -37 -120 -117 -204 -226 -237 -27 -7 -88 -14 -137 -14
l-88 0 0 50 0 50 73 0 c94 0 136 12 176 52 55 54 73 108 79 234 5 130 -4 169
-57 227 -47 52 -105 77 -197 84 l-74 6 0 48 0 49 60 0 c32 0 83 -5 112 -11z
m620 -51 c1 -35 2 -215 0 -400 l-3 -338 -64 0 -64 0 -3 298 c-2 163 -2 343 0
400 l3 102 64 0 63 0 4 -62z m466 -911 c2 -12 -3 -17 -17 -17 -12 0 -21 6 -21
13 0 31 32 34 38 4z m-1198 -77 c0 -71 3 -92 15 -96 23 -9 18 -24 -8 -24 -39
0 -47 18 -47 110 0 88 3 100 27 100 10 0 13 -22 13 -90z m1388 54 c3 -27 6
-30 28 -26 43 8 64 -22 64 -90 0 -51 -2 -58 -20 -58 -16 0 -19 8 -22 58 -3 50
-6 57 -25 60 -22 3 -23 0 -23 -57 0 -54 -2 -61 -20 -61 -19 0 -20 7 -20 106 0
95 2 105 18 102 11 -2 18 -14 20 -34z m-1524 14 c2 -7 15 -49 30 -93 14 -44
26 -83 26 -87 0 -18 -38 -6 -43 12 -4 15 -14 20 -37 20 -23 0 -33 -5 -37 -20
-3 -13 -14 -20 -29 -20 -13 0 -24 1 -24 3 0 5 46 136 59 170 11 28 49 38 55
15z m1057 -63 l16 -70 12 45 c21 85 26 95 46 95 16 0 22 -12 34 -75 l15 -75
12 50 c6 28 15 62 18 78 4 18 13 27 26 27 24 0 24 -2 6 -66 -8 -27 -20 -68
-26 -91 -9 -36 -15 -43 -35 -43 -22 0 -26 7 -37 60 -6 33 -14 57 -16 55 -3 -2
-10 -28 -17 -57 -10 -46 -15 -53 -37 -56 -24 -3 -26 1 -47 82 -26 104 -26 118
-4 114 13 -2 22 -23 34 -73z m713 33 l17 -43 19 43 c10 23 26 42 35 42 21 0
19 -13 -10 -70 -14 -28 -25 -66 -25 -90 0 -34 -3 -40 -21 -40 -19 0 -21 5 -17
45 2 25 1 45 -2 45 -7 0 -50 87 -50 100 0 6 8 10 18 10 13 0 24 -14 36 -42z
m-344 13 c0 -11 6 -22 13 -25 10 -5 10 -7 0 -12 -20 -9 -17 -114 2 -114 8 0
15 -5 15 -11 0 -6 -14 -9 -32 -7 -33 3 -33 3 -36 63 -2 33 -9 63 -15 68 -9 7
-9 10 1 14 6 2 12 13 12 24 0 12 7 19 20 19 13 0 20 -7 20 -19z m-1184 -66 c8
-53 19 -51 28 5 5 35 10 41 28 38 17 -2 24 -14 33 -53 l11 -50 8 35 c14 64 17
70 37 70 15 0 19 -5 15 -17 -3 -10 -12 -44 -21 -75 -14 -50 -20 -58 -40 -58
-19 0 -26 7 -33 33 -10 32 -11 31 -27 -18 -2 -8 -15 -15 -28 -15 -22 0 -26 7
-41 65 -20 81 -20 85 3 85 16 0 21 -9 27 -45z m302 32 c6 -6 12 -39 13 -72 l3
-59 -52 -3 c-43 -3 -53 0 -62 17 -16 30 11 70 46 70 19 0 25 4 22 18 -3 12
-12 16 -31 14 -26 -3 -35 7 -20 21 11 12 70 8 81 -6z m117 -38 l18 -52 19 52
c14 37 25 51 38 51 18 0 18 -5 -10 -81 -46 -122 -56 -139 -92 -139 -10 0 -18
7 -18 15 0 8 7 15 15 15 8 0 19 9 25 21 9 17 7 31 -13 72 -38 82 -41 97 -20
97 14 0 24 -14 38 -51z m217 36 c-1 -5 -12 -10 -25 -10 -28 0 -31 -37 -2 -41
18 -3 45 -29 45 -45 0 -4 -7 -15 -16 -24 -20 -19 -85 -17 -92 3 -3 10 5 13 28
10 46 -4 49 18 6 36 -38 16 -49 49 -24 74 15 15 84 12 80 -3z m458 -60 c0 -68
-2 -75 -20 -75 -18 0 -20 7 -20 75 0 68 2 75 20 75 18 0 20 -7 20 -75z m679
49 c24 -30 26 -55 10 -87 -16 -30 -28 -37 -65 -37 -62 0 -91 83 -44 130 29 29
74 26 99 -6z m99 -37 c3 -54 4 -57 29 -57 25 0 26 1 20 60 -5 58 -4 60 19 60
23 0 24 -2 24 -75 l0 -74 -33 1 c-19 1 -38 -2 -44 -5 -5 -3 -19 1 -31 9 -19
13 -22 25 -22 80 0 57 2 65 18 62 13 -2 18 -15 20 -61z"/>
<path d="M967 1110 c-4 -15 0 -20 13 -20 13 0 17 5 13 20 -3 11 -9 20 -13 20
-4 0 -10 -9 -13 -20z"/>
<path d="M1483 1074 c-7 -18 11 -39 26 -30 17 11 13 46 -4 46 -9 0 -18 -7 -22
-16z"/>
<path d="M2952 1138 c-16 -16 -15 -73 2 -87 18 -15 46 11 46 43 0 31 -32 60
-48 44z"/>
</g>
</svg>
