<?xml version="1.0" standalone="no"?>
<!DOCTYPE svg PUBLIC "-//W3C//DTD SVG 20010904//EN"
 "http://www.w3.org/TR/2001/REC-SVG-20010904/DTD/svg10.dtd">
<svg version="1.0" xmlns="http://www.w3.org/2000/svg"
 width="180.000000pt" height="180.000000pt" viewBox="0 0 180.000000 180.000000"
 preserveAspectRatio="xMidYMid meet">

<g transform="translate(0.000000,180.000000) scale(0.100000,-0.100000)"
fill="#000000" stroke="none">
<path d="M0 900 l0 -900 900 0 900 0 0 900 0 900 -900 0 -900 0 0 -900z m461
279 c85 -26 148 -110 149 -200 0 -65 -43 -146 -98 -184 -43 -30 -45 -30 -190
-32 -81 -1 -136 2 -122 6 l25 7 0 199 0 199 -25 7 c-14 4 31 7 99 8 68 1 141
-4 162 -10z m540 -27 c34 -38 39 -97 12 -143 -21 -36 -87 -69 -134 -68 l-34 1
34 8 c50 12 73 41 79 98 7 77 -30 132 -90 132 -45 0 -48 -13 -48 -206 0 -196
1 -199 55 -207 17 -2 -17 -4 -75 -4 -58 0 -94 2 -80 4 14 3 28 10 32 17 4 6 8
92 8 191 0 99 -4 185 -8 191 -4 7 -18 14 -32 17 -14 3 37 4 113 4 l139 -2 29
-33z m279 29 l-25 -7 0 -199 0 -199 25 -7 c14 -4 -18 -7 -70 -7 -52 1 -84 3
-70 5 14 3 28 10 32 17 4 6 8 92 8 191 0 99 -4 185 -8 191 -4 7 -18 14 -32 17
-14 2 18 4 70 5 52 0 84 -3 70 -7z m240 -221 l0 -50 50 0 c43 0 50 -3 50 -20
0 -17 -7 -20 -50 -20 l-50 0 0 -51 c0 -43 -3 -50 -17 -47 -14 2 -19 15 -21 51
l-3 47 -43 0 c-28 0 -46 5 -49 14 -8 21 2 26 50 26 l43 0 0 43 c0 46 5 57 27
57 9 0 13 -15 13 -50z m-1108 -372 c2 -21 0 -38 -4 -38 -4 0 -8 21 -7 48 1 52
6 48 11 -10z m608 42 c0 -5 -5 -10 -11 -10 -5 0 -7 5 -4 10 3 6 8 10 11 10 2
0 4 -4 4 -10z m141 -20 c15 0 19 -7 18 -32 -2 -31 -2 -31 -6 -5 -2 15 -10 27
-18 27 -8 0 -16 -12 -18 -27 -2 -16 -4 -5 -4 22 -1 28 1 42 4 33 2 -10 13 -18
24 -18z m-815 -15 c18 -44 18 -51 -2 -34 -12 10 -20 10 -35 1 -12 -8 -19 -9
-19 -2 0 14 29 70 36 70 3 0 12 -16 20 -35z m744 12 c12 -4 11 -6 -2 -6 -21
-1 -25 -37 -5 -44 7 -4 6 -6 -4 -6 -11 -1 -18 9 -21 27 -5 33 1 59 11 45 3 -6
13 -13 21 -16z m-630 -19 l9 -23 7 23 c3 12 10 22 14 22 4 0 11 -10 14 -22 l7
-23 9 23 c14 33 21 27 9 -8 -11 -31 -29 -41 -29 -15 0 8 -4 15 -10 15 -5 0
-10 -7 -10 -15 0 -26 -18 -16 -29 15 -12 35 -5 41 9 8z m161 -10 c7 -26 5 -28
-22 -28 -19 0 -29 5 -29 15 0 8 8 15 18 15 14 0 15 -2 2 -10 -13 -8 -12 -10 3
-10 11 0 17 8 17 21 0 16 -5 20 -20 16 -11 -3 -17 -1 -14 4 11 18 38 4 45 -23z
m49 6 c0 -8 5 -14 10 -14 6 0 10 6 10 14 0 8 4 18 10 21 7 4 7 -3 0 -20 -17
-45 -30 -65 -43 -65 -8 0 -7 3 2 9 12 8 13 16 4 45 -6 20 -7 34 -2 30 5 -3 9
-12 9 -20z m95 17 c-19 -8 -19 -8 3 -20 27 -14 20 -31 -11 -30 -20 1 -20 2 3
8 l25 7 -22 8 c-13 4 -23 14 -23 22 0 8 9 14 23 13 21 0 21 -1 2 -8z m147 -11
l11 25 10 -28 11 -27 13 27 c12 26 12 26 7 3 -10 -39 -22 -46 -32 -19 l-9 24
-7 -23 c-7 -20 -26 -31 -26 -14 0 4 -3 18 -5 32 l-6 25 12 -25 11 -25 10 25z
m105 -27 c-3 -10 -5 -2 -5 17 0 19 2 27 5 18 2 -10 2 -26 0 -35z m297 21 c4
15 9 26 12 23 10 -10 -29 -87 -44 -87 -13 0 -13 2 2 13 15 11 16 17 7 35 -6
11 -11 27 -11 34 1 7 7 0 14 -17 l13 -30 7 29z m101 -4 c0 -16 -6 -26 -19 -28
-25 -5 -39 12 -31 38 10 31 50 24 50 -10z m70 -20 c8 0 16 12 18 28 4 25 4 25
6 -5 1 -29 -2 -33 -24 -33 -22 0 -25 4 -24 33 2 30 2 30 6 5 2 -16 10 -28 18
-28z"/>
<path d="M316 1164 c-24 -23 -24 -355 0 -378 40 -41 144 -8 190 61 63 93 21
280 -71 319 -45 19 -100 18 -119 -2z"/>
<path d="M316 595 c-3 -8 -1 -15 4 -15 6 0 10 7 10 15 0 8 -2 15 -4 15 -2 0
-6 -7 -10 -15z"/>
<path d="M1375 590 c-8 -14 3 -30 21 -30 8 0 14 9 14 20 0 21 -24 28 -35 10z"/>
</g>
</svg>
